<svg xmlns="http://www.w3.org/2000/svg" data-name="Layer 1" viewBox="0 0 100 125" x="0px" y="0px">
<circle cx="42" cy="36" r="2"/>
<path d="M72,40H65.89A15.41,15.41,0,0,0,66,35.67a2,2,0,0,0-2.76-1.51L52,38.83V36a10,10,0,0,0-20,0H28a2,2,0,0,0,0,4h4v3A21,21,0,0,0,46,62.77V72a2,2,0,0,0,4,0V63.76a18.87,18.87,0,0,0,6,0V72a2,2,0,0,0,4,0V62.77A21,21,0,0,0,74,43V42A2,2,0,0,0,72,40ZM53,60A17,17,0,0,1,36,43V36a6,6,0,0,1,12,0v2.83a4.09,4.09,0,0,0,1.84,3.42,4.05,4.05,0,0,0,3.86.34L62,39c-.37,3.3-2.31,8.7-10.57,11.06a2,2,0,0,0,1.1,3.84c7.24-2.07,10.66-6.14,12.23-9.92H70A17,17,0,0,1,53,60Z"/>
</svg>