<svg xmlns="http://www.w3.org/2000/svg" viewBox="0 0 64 80" x="0px" y="0px"><path d="m29.51,13.93c.2.2.45.29.71.29s.51-.1.71-.29c.39-.39.39-1.02,0-1.41l-4.24-4.24c-.39-.39-1.02-.39-1.41,0s-.39,1.02,0,1.41l4.24,4.24Z"/><path d="m38,11c.55,0,1-.45,1-1v-6c0-.55-.45-1-1-1s-1,.45-1,1v6c0,.55.45,1,1,1Z"/><path d="m45.78,14.22c.26,0,.51-.1.71-.29l4.24-4.24c.39-.39.39-1.02,0-1.41s-1.02-.39-1.41,0l-4.24,4.24c-.39.39-.39,1.02,0,1.41.2.2.45.29.71.29Z"/><path d="m54.28,45c1.5,0,2.74-1.07,2.97-2.55l3.56-23.15c.09-.58-.08-1.16-.46-1.61-.38-.44-.93-.7-1.52-.7H15.53l-.36-3.3c-.12-1.26-1.01-2.25-2.18-2.58v1.88c0,.13-.02.26-.04.39.12.15.21.32.23.52l3.64,33.39c.15,1.54,1.43,2.7,2.99,2.7h2.02l1.09,2.18c-1.53.77-2.59,2.33-2.59,4.16,0,2.57,2.09,4.67,4.67,4.67s4.67-2.09,4.67-4.67c0-1.82-1.06-3.39-2.59-4.16l1.09-2.18h18.67l1.09,2.18c-1.53.77-2.59,2.33-2.59,4.16,0,2.57,2.09,4.67,4.67,4.67s4.67-2.09,4.67-4.67c0-1.82-1.06-3.39-2.59-4.16l1.09-2.18h4.83c.55,0,1-.45,1-1s-.45-1-1-1H19.81c-.52,0-.94-.39-1-.91l-.23-2.09h35.69Zm-26.61,11.33c0,1.47-1.2,2.67-2.67,2.67s-2.67-1.2-2.67-2.67c0-1.04.61-1.94,1.48-2.37l.09.19c.45.9,1.74.9,2.19,0l.09-.19c.87.44,1.48,1.33,1.48,2.37Zm25,0c0,1.47-1.2,2.67-2.67,2.67s-2.67-1.2-2.67-2.67c0-1.04.61-1.94,1.48-2.37l.09.19c.45.9,1.74.9,2.19,0l.09-.19c.87.44,1.48,1.33,1.48,2.37ZM16.68,27.55h8.41l.81,7h-8.46l-.76-7Zm10.42,0h9.89v7h-9.08l-.81-7Zm29.33,7h-7.34l.81-7h7.61l-1.08,7Zm-9.36,0h-8.08v-7h8.89l-.81,7Zm-.23,2l-.74,6.45h-7.11v-6.45h7.85Zm-7.85-11v-6.55h9.88l-.76,6.55h-9.12Zm-2,0h-10.12l-.76-6.55h10.88v6.55Zm0,11v6.45h-8.11l-.74-6.45h8.85Zm17.28,6.45h-6.16l.74-6.45h7.27l-.86,5.6c-.08.49-.49.85-.99.85Zm3.55-17.45h-7.69l.76-6.55h7.94l-1.01,6.55Zm-33.72-6.55l.76,6.55h-8.4l-.71-6.55h8.36Zm-6.44,17.55h8.47l.74,6.45h-8.51l-.7-6.45Z"/><rect x="4" y="10" width="7" height="4" rx="1" ry="1"/></svg>
