<svg xmlns="http://www.w3.org/2000/svg" xmlns:xlink="http://www.w3.org/1999/xlink" version="1.1" x="0px" y="0px" viewBox="0 0 64 80" enable-background="new 0 0 64 64" xml:space="preserve"><path d="M15.2060547,26.7670898c0.5522461,0,1-0.4477539,1-1s-0.4477539-1-1-1H6.40625c-0.5522461,0-1,0.4477539-1,1  s0.4477539,1,1,1H15.2060547z"/><path d="M61.8815308,32.489624c-0.0194702-0.038269-0.0313721-0.079895-0.0558472-0.1156006L53.387207,20.0219727  c-0.1865234-0.2729492-0.4951172-0.4360352-0.8256836-0.4360352h-9.6508789v-4.4589844  c0-2.5498047-2.0693359-4.6240234-4.6132812-4.6240234H13.3818359c-2.5439453,0-4.6132812,2.0742188-4.6132812,4.6240234v4.4589844  H4.324707c-0.5522461,0-1,0.4477539-1,1s0.4477539,1,1,1h12.9628906c0.5522461,0,1-0.4477539,1-1s-0.4477539-1-1-1h-6.519043  v-4.4589844c0-1.4467773,1.1723633-2.6240234,2.6132812-2.6240234h24.9155273c1.440918,0,2.6132812,1.1772461,2.6132812,2.6240234  v18.7338867c0,1.440918-1.1723633,2.6132812-2.6132812,2.6132812H13.3818359c-1.440918,0-2.6132812-1.1723633-2.6132812-2.6132812  v-1.9130859h7.84375c0.5522461,0,1-0.4477539,1-1s-0.4477539-1-1-1H3c-0.5522461,0-1,0.4477539-1,1s0.4477539,1,1,1h5.7685547  v1.9130859c0,2.5439453,2.0693359,4.6132812,4.6132812,4.6132812h0.3564453v5.3930664  c0,2.4272461,1.9750977,4.4018555,4.4023438,4.4018555h2.1914673c0.480835,2.9592285,3.0471802,5.2280273,6.1400757,5.2280273  c3.0933838,0,5.659729-2.2687988,6.140564-5.2280273h10.2325439c0.480835,2.9592285,3.0471802,5.2280273,6.1400757,5.2280273  c3.0933838,0,5.659729-2.2687988,6.140564-5.2280273H61c0.5522461,0,1-0.4477539,1-1V32.9379883  c0-0.1207275-0.0284424-0.2371216-0.0704956-0.348999C61.9162598,32.5536499,61.8985596,32.5228882,61.8815308,32.489624z   M52.0336914,21.5859375l7.0720215,10.3520508H42.9106445V21.5859375H52.0336914z M26.472168,51.4970703  c-2.331543,0-4.2280273-1.8964844-4.2280273-4.2280273s1.8964844-4.2280273,4.2280273-4.2280273  s4.2285156,1.8964844,4.2285156,4.2280273S28.8037109,51.4970703,26.472168,51.4970703z M48.9853516,51.4970703  c-2.331543,0-4.2280273-1.8964844-4.2280273-4.2280273s1.8964844-4.2280273,4.2280273-4.2280273  s4.2285156,1.8964844,4.2285156,4.2280273S51.3168945,51.4970703,48.9853516,51.4970703z M55.1259155,46.269043  c-0.480835-2.9592285-3.0471802-5.2280273-6.140564-5.2280273c-3.0928955,0-5.6592407,2.2687988-6.1400757,5.2280273H32.6127319  c-0.480835-2.9592285-3.0471802-5.2280273-6.140564-5.2280273c-3.0928955,0-5.6592407,2.2687988-6.1400757,5.2280273H18.140625  c-1.324707,0-2.4023438-1.0776367-2.4023438-2.4018555v-5.3930664h22.559082c2.5175171,0,4.5631104-2.0285645,4.6054688-4.5361328  H60V46.269043H55.1259155z"/></svg>
