<svg xmlns:dc="http://purl.org/dc/elements/1.1/" xmlns:cc="http://creativecommons.org/ns#" xmlns:rdf="http://www.w3.org/1999/02/22-rdf-syntax-ns#" xmlns:svg="http://www.w3.org/2000/svg" xmlns="http://www.w3.org/2000/svg" xmlns:sodipodi="http://sodipodi.sourceforge.net/DTD/sodipodi-0.dtd" xmlns:inkscape="http://www.inkscape.org/namespaces/inkscape" viewBox="0 0 12.7 15.875" version="1.1" x="0px" y="0px"><g transform="translate(0,-284.29998)"><path style="" d="m 7.1609984,284.8294 a 0.72062122,0.72062122 0 0 0 -0.683153,0.49639 1.5057173,1.5057173 0 0 0 0.1268909,1.22166 5.4747467,5.4747467 0 0 1 0.6653784,2.99349 3.7203651,3.7203651 0 0 0 -1.4784627,-0.5192 1.0289593,1.0289593 0 0 0 -0.7648798,0.21163 6.8853489,6.8853489 0 0 0 -1.6079003,1.8023 0.41228311,0.41228311 0 0 0 -0.017671,0.40094 0.97258221,0.97258221 0 0 0 0.1207842,0.18526 0.76600104,0.76600104 0 0 0 -0.2365011,0.21774 0.31978174,0.31978174 0 0 0 -0.01819,0.33954 47.339709,47.339709 0 0 0 0.9074924,1.56832 1.3372973,1.3372973 0 0 0 0.6643909,0.55626 2.6961831,2.6961831 0 0 1 1.5393746,1.52417 0.72062122,0.72062122 0 0 0 0.4811617,0.42989 6.1093082,6.1093082 0 0 0 2.9868876,0.0538 v 0 a 1.3372973,1.3372973 0 0 0 1.0186358,-1.10086 18.733216,18.733216 0 0 0 0.139572,-4.48871 12.429308,12.429308 0 0 0 0.287798,-3.6736 0.53561835,0.53561835 0 0 0 -0.708541,-0.46898 1.0421095,1.0421095 0 0 0 -0.499431,0.36643 13.608548,13.608548 0 0 0 -0.07663,-1.01608 0.72062122,0.72062122 0 0 0 -1.0343834,-0.56541 1.0161242,1.0161242 0 0 0 -0.5648895,0.84354 v 0.21722 A 6.7861866,6.7861866 0 0 0 7.7682195,285.15883 0.72062122,0.72062122 0 0 0 7.1611803,284.8289 Z m -0.0026,0.2081 a 0.51273108,0.51273108 0 0 1 0.4319177,0.23499 6.5782964,6.5782964 0 0 1 1.0490917,3.72843 0.10408146,0.10408146 0 0 0 0.208098,0.005 6.7861866,6.7861866 0 0 0 -0.2339804,-1.94034 v -0.84963 a 0.80823408,0.80823408 0 0 1 0.448653,-0.66439 0.51273108,0.51273108 0 0 1 0.735957,0.40198 13.400657,13.400657 0 0 1 -0.055844,3.45031 0.10395476,0.10395476 0 0 0 0.2055513,0.0305 13.608548,13.608548 0 0 0 0.1436523,-1.96625 0.83421934,0.83421934 0 0 1 0.557275,-0.69126 0.32772821,0.32772821 0 0 1 0.433451,0.28676 12.221416,12.221416 0 0 1 -0.290318,3.64416 18.525326,18.525326 0 0 1 -0.135519,4.47197 1.1294071,1.1294071 0 0 1 -0.8603011,0.92982 5.9014183,5.9014183 0 0 1 -2.8853852,-0.0523 0.51273108,0.51273108 0 0 1 -0.3420833,-0.30607 2.9040733,2.9040733 0 0 0 -1.6581318,-1.64139 1.1294071,1.1294071 0 0 1 -0.5608356,-0.46999 47.131817,47.131817 0 0 1 -0.9039583,-1.5612 0.1118916,0.1118916 0 0 1 0.010135,-0.11876 0.5581109,0.5581109 0 0 1 0.7344239,-0.1614 6.1489321,6.1489321 0 0 1 1.2023587,1.13284 0.72062122,0.72062122 0 0 0 0.9592571,0.14618 2.6896546,2.6896546 0 0 0 0.7912818,-0.81462 2.0455405,2.0455405 0 0 0 -0.027416,-1.22673 h -0.00416 a 1.5997288,1.5997288 0 0 0 -1.5180658,-0.70244 11.207314,11.207314 0 0 1 -1.3627719,1.25464 0.76600104,0.76600104 0 0 0 -0.5085512,-0.0497 0.76469209,0.76469209 0 0 1 -0.1395723,-0.1949 0.20439296,0.20439296 0 0 1 0.00962,-0.19895 6.677459,6.677459 0 0 1 1.5596698,-1.74799 0.82106911,0.82106911 0 0 1 0.6100796,-0.16902 3.512475,3.512475 0 0 1 1.3962682,0.4908 0.20789013,0.20789013 0 0 0 0.3162009,-0.16394 5.6826368,5.6826368 0 0 0 -0.7151421,-3.15032 1.2978271,1.2978271 0 0 1 -0.087288,-1.01357 0.51273108,0.51273108 0 0 1 0.4862291,-0.35325 z m -1.4241774,5.49367 a 1.3918386,1.3918386 0 0 1 1.1932374,0.59787 1.8376504,1.8376504 0 0 1 0.023907,1.0486 2.4817645,2.4817645 0 0 1 -0.7146224,0.72681 v 0 a 0.51273108,0.51273108 0 0 1 -0.6821395,-0.10405 6.3568219,6.3568219 0 0 0 -1.1353661,-1.09174 11.415205,11.415205 0 0 0 1.277485,-1.17546 1.3918386,1.3918386 0 0 1 0.03807,-0.003 z" fill="#000000" stroke="none"/><path style="" d="m 2.6011182,292.35118 -1.0156497,0.5864 a 0.10396224,0.10396224 0 0 0 0.1040105,0.18004 l 1.0156498,-0.5864 a 0.10396226,0.10396226 0 0 0 -0.1040106,-0.18004 z" fill="#000000" stroke="none"/><path style="" d="M 2.7051288,290.77853 1.689479,290.19214 a 0.103962,0.103962 0 0 0 -0.1040105,0.18003 l 1.0156497,0.5864 a 0.10396226,0.10396226 0 0 0 0.1040106,-0.18004 z" fill="#000000" stroke="none"/><path style="" d="M 2.6530744,291.55093 H 1.4803775 a 0.10394671,0.10394671 0 0 0 0,0.20789 h 1.1726969 a 0.10394671,0.10394671 0 0 0 0,-0.20789 z" fill="#000000" stroke="none"/></g></svg>
