<svg xmlns="http://www.w3.org/2000/svg" xmlns:xlink="http://www.w3.org/1999/xlink" xmlns:serif="http://www.serif.com/" viewBox="0 0 32 40" version="1.1" xml:space="preserve" style="" x="0px" y="0px" fill-rule="evenodd" clip-rule="evenodd" stroke-linejoin="round" stroke-miterlimit="2"><g transform="matrix(1,0,0,1,-2968.13,-104.407)"><path d="M2994.15,129.782C2994.15,128.289 2994.19,126.578 2994.17,126.25C2994.15,125.79 2993.74,125.722 2993.7,125.72C2992.53,125.649 2991.34,125.278 2990.36,124.642C2990.04,124.434 2989.62,124.434 2989.3,124.642C2988.32,125.278 2987.15,125.649 2985.98,125.72C2985.94,125.722 2985.53,125.788 2985.5,126.244C2985.48,126.573 2985.5,128.287 2985.5,129.782C2985.5,131.406 2986.39,132.898 2987.82,133.669C2988.73,134.158 2989.59,134.623 2989.59,134.623C2989.74,134.703 2989.92,134.703 2990.07,134.623C2990.07,134.623 2990.93,134.158 2991.83,133.669C2993.26,132.898 2994.15,131.406 2994.15,129.782ZM2989.83,125.491C2990.82,126.13 2991.99,126.535 2993.17,126.676C2993.16,127.327 2993.15,128.7 2993.15,129.782C2993.15,131.038 2992.47,132.193 2991.36,132.789C2991.36,132.789 2989.83,133.615 2989.83,133.615C2989.83,133.615 2988.3,132.789 2988.3,132.789C2987.19,132.193 2986.5,131.038 2986.5,129.782C2986.5,128.699 2986.5,127.325 2986.5,126.676C2987.68,126.536 2988.84,126.131 2989.83,125.491ZM2975.07,129.608L2984.2,129.634C2984.47,129.635 2984.7,129.412 2984.7,129.136C2984.7,128.86 2984.47,128.635 2984.2,128.634L2975.07,128.608L2975.07,110.876L2990.53,110.876L2990.53,123.513C2990.53,123.789 2990.75,124.013 2991.03,124.013C2991.3,124.013 2991.53,123.789 2991.53,123.513L2991.53,108.511C2991.53,107.879 2991.28,107.274 2990.83,106.827C2990.39,106.381 2989.78,106.13 2989.15,106.13C2985.98,106.13 2979.62,106.13 2976.45,106.13C2975.82,106.13 2975.22,106.381 2974.77,106.827C2974.32,107.274 2974.07,107.879 2974.07,108.511L2974.07,130.972C2974.07,131.603 2974.32,132.209 2974.77,132.655C2975.22,133.102 2975.82,133.352 2976.45,133.352C2977.99,133.352 2982.62,133.351 2984.94,133.351C2985.22,133.351 2985.44,133.127 2985.44,132.851C2985.44,132.575 2985.22,132.351 2984.94,132.351C2982.62,132.351 2977.99,132.352 2976.45,132.352C2976.09,132.352 2975.74,132.207 2975.48,131.948C2975.22,131.689 2975.07,131.338 2975.07,130.972L2975.07,129.608ZM2987.9,129.54L2989.21,130.846C2989.4,131.041 2989.72,131.041 2989.91,130.846L2992.24,128.52C2992.43,128.325 2992.43,128.008 2992.24,127.813C2992.04,127.618 2991.73,127.618 2991.53,127.813L2989.56,129.785C2989.56,129.785 2988.61,128.832 2988.61,128.832C2988.41,128.637 2988.1,128.637 2987.9,128.832C2987.7,129.028 2987.7,129.344 2987.9,129.54ZM2982.05,116.032C2980.84,116.146 2979.91,117.085 2979.91,118.193L2979.91,118.195C2979.91,119.368 2980.96,120.349 2982.27,120.349L2982.86,120.349C2983.22,120.349 2983.56,120.472 2983.81,120.696C2984.04,120.9 2984.18,121.175 2984.18,121.464L2984.18,121.466C2984.18,122.055 2983.61,122.501 2982.95,122.501L2982.28,122.501C2981.91,122.501 2981.56,122.374 2981.3,122.141C2981.2,122.054 2981.12,121.955 2981.05,121.847C2980.92,121.608 2980.61,121.526 2980.37,121.663C2980.13,121.801 2980.05,122.107 2980.19,122.346C2980.3,122.544 2980.45,122.727 2980.63,122.888C2981.01,123.228 2981.51,123.441 2982.05,123.491L2982.05,123.921C2982.05,124.197 2982.27,124.421 2982.55,124.421C2982.82,124.421 2983.05,124.197 2983.05,123.921L2983.05,123.5C2984.24,123.455 2985.18,122.546 2985.18,121.466C2985.18,121.466 2985.18,121.465 2985.18,121.464C2985.18,120.897 2984.93,120.35 2984.48,119.949C2984.05,119.567 2983.47,119.349 2982.86,119.349C2982.86,119.349 2982.27,119.349 2982.27,119.349C2981.54,119.349 2980.91,118.849 2980.91,118.195L2980.91,118.193C2980.91,117.528 2981.55,117.02 2982.3,117.02C2982.3,117.02 2982.7,117.02 2982.7,117.02C2983.32,117.02 2983.86,117.346 2984.08,117.829C2984.19,118.08 2984.49,118.191 2984.74,118.077C2984.99,117.963 2985.1,117.667 2984.99,117.416C2984.66,116.698 2983.93,116.156 2983.05,116.042L2983.05,115.6C2983.05,115.324 2982.82,115.1 2982.55,115.1C2982.27,115.1 2982.05,115.324 2982.05,115.6L2982.05,116.032ZM2990.53,109.876L2990.53,108.511C2990.53,108.144 2990.38,107.793 2990.12,107.534C2989.87,107.275 2989.51,107.13 2989.15,107.13C2985.98,107.13 2979.62,107.13 2976.45,107.13C2976.09,107.13 2975.74,107.275 2975.48,107.534C2975.22,107.793 2975.07,108.144 2975.07,108.511L2975.07,109.876L2990.53,109.876Z"/></g><text x="0" y="47" fill="#000000" font-size="5px" font-weight="bold" font-family="'Helvetica Neue', Helvetica, Arial-Unicode, Arial, Sans-serif">Created by rendicon</text><text x="0" y="52" fill="#000000" font-size="5px" font-weight="bold" font-family="'Helvetica Neue', Helvetica, Arial-Unicode, Arial, Sans-serif">from the Noun Project</text></svg>